<svg xmlns="http://www.w3.org/2000/svg" viewBox="0 0 256 256" width="256" height="256">
  <defs>
    <radialGradient id="bg" cx="50%" cy="50%" r="50%">
      <stop offset="0%" stop-color="#2A2420"/>
      <stop offset="100%" stop-color="#0F0D0B"/>
    </radialGradient>
    <linearGradient id="gold" x1="0%" y1="0%" x2="100%" y2="100%">
      <stop offset="0%" stop-color="#D4A843"/>
      <stop offset="50%" stop-color="#F2D77D"/>
      <stop offset="100%" stop-color="#B8862D"/>
    </linearGradient>
  </defs>
  <circle cx="128" cy="128" r="124" fill="url(#bg)" stroke="url(#gold)" stroke-width="3"/>
  <polygon points="128,52 182,78 182,130 156,170 100,170 74,130 74,78" fill="none" stroke="url(#gold)" stroke-width="1.5" opacity="0.3"/>
  <text x="128" y="140" text-anchor="middle" font-family="Georgia, 'Times New Roman', serif" font-size="72" font-weight="bold" fill="url(#gold)" dominant-baseline="central">12</text>
  <circle cx="128" cy="128" r="96" fill="none" stroke="url(#gold)" stroke-width="1" opacity="0.3" stroke-dasharray="4,4"/>
  <g fill="url(#gold)" opacity="0.4">
    <path d="M128 6 L132 16 L124 16 Z"/>
    <path d="M128 250 L132 240 L124 240 Z"/>
    <path d="M6 128 L16 124 L16 132 Z"/>
    <path d="M250 128 L240 124 L240 132 Z"/>
  </g>
  <g fill="url(#gold)" opacity="0.15">
    <circle cx="128" cy="44" r="3"/><circle cx="78" cy="74" r="3"/><circle cx="178" cy="74" r="3"/>
    <circle cx="72" cy="132" r="3"/><circle cx="184" cy="132" r="3"/>
    <circle cx="100" cy="170" r="3"/><circle cx="156" cy="170" r="3"/>
  </g>
</svg>